<?xml version="1.0" encoding="UTF-8" standalone="no"?>
<!-- Created with Inkscape (http://www.inkscape.org/) -->

<svg
   width="416.65994mm"
   height="416.65991mm"
   viewBox="0 0 416.65994 416.65991"
   version="1.1"
   id="svg1"
   xml:space="preserve"
   inkscape:version="1.4 (e7c3feb1, 2024-10-09)"
   sodipodi:docname="icon.svg"
   xmlns:inkscape="http://www.inkscape.org/namespaces/inkscape"
   xmlns:sodipodi="http://sodipodi.sourceforge.net/DTD/sodipodi-0.dtd"
   xmlns="http://www.w3.org/2000/svg"
   xmlns:svg="http://www.w3.org/2000/svg"><sodipodi:namedview
     id="namedview1"
     pagecolor="#ffffff"
     bordercolor="#000000"
     borderopacity="0.25"
     inkscape:showpageshadow="2"
     inkscape:pageopacity="0.0"
     inkscape:pagecheckerboard="0"
     inkscape:deskcolor="#d1d1d1"
     inkscape:document-units="mm"
     showgrid="true"
     inkscape:zoom="0.29286376"
     inkscape:cx="1804.5934"
     inkscape:cy="780.22628"
     inkscape:window-width="1472"
     inkscape:window-height="848"
     inkscape:window-x="0"
     inkscape:window-y="1113"
     inkscape:window-maximized="0"
     inkscape:current-layer="g5"><inkscape:grid
       id="grid3"
       units="mm"
       originx="18.220792"
       originy="513.3253"
       spacingx="0.99999998"
       spacingy="1"
       empcolor="#0099e5"
       empopacity="0.30196078"
       color="#0099e5"
       opacity="0.14901961"
       empspacing="5"
       enabled="true"
       visible="true" /></sodipodi:namedview><defs
     id="defs1"><inkscape:path-effect
       effect="powermask"
       id="path-effect2"
       is_visible="true"
       lpeversion="1"
       uri="#mask-powermask-path-effect2"
       invert="false"
       hide_mask="false"
       background="true"
       background_color="#ffffffff" /><marker
       style="overflow:visible"
       id="ConcaveTriangle"
       refX="0"
       refY="0"
       orient="auto-start-reverse"
       inkscape:stockid="Concave triangle arrow"
       markerWidth="0.5"
       markerHeight="0.5"
       viewBox="0 0 1 1"
       inkscape:isstock="true"
       inkscape:collect="always"
       preserveAspectRatio="xMidYMid"><path
         transform="scale(0.7)"
         d="M -2,-4 9,0 -2,4 c 2,-2.33 2,-5.66 0,-8 z"
         style="fill:context-stroke;fill-rule:evenodd;stroke:none"
         id="path7" /></marker><filter
       id="mask-powermask-path-effect2_inverse"
       inkscape:label="filtermask-powermask-path-effect2"
       style="color-interpolation-filters:sRGB"
       height="100"
       width="100"
       x="-50"
       y="-50"><feColorMatrix
         id="mask-powermask-path-effect2_primitive1"
         values="1"
         type="saturate"
         result="fbSourceGraphic" /><feColorMatrix
         id="mask-powermask-path-effect2_primitive2"
         values="-1 0 0 0 1 0 -1 0 0 1 0 0 -1 0 1 0 0 0 1 0 "
         in="fbSourceGraphic" /></filter><mask
       maskUnits="userSpaceOnUse"
       id="mask-powermask-path-effect2"><path
         id="mask-powermask-path-effect2_box"
         style="fill:#ffffff;fill-opacity:1"
         d="m 17.43097,-500.99739 h 339.18928 v 388.21742 H 17.43097 Z" /><rect
         style="fill:#060606;fill-opacity:1;stroke:#000000;stroke-width:26.7316;stroke-linecap:round;stroke-dasharray:none;stroke-opacity:1;paint-order:markers stroke fill"
         id="rect2"
         width="134.2852"
         height="131.90483"
         x="-131.18802"
         y="-613.80597"
         transform="matrix(0.78690367,0.61707586,-0.66983845,0.74250687,0,0)"
         d="M -131.18802,-613.80597 H 3.0971832 v 131.90483 H -131.18802 Z" /></mask></defs><g
     inkscape:label="Ebene 1"
     inkscape:groupmode="layer"
     id="layer1"
     transform="translate(18.220791,513.32532)"><rect
       style="fill:#ffffff;fill-opacity:1;stroke:none;stroke-width:25.8999;stroke-linecap:square;stroke-dasharray:none;stroke-dashoffset:0;stroke-opacity:1;paint-order:markers stroke fill"
       id="rect5"
       width="486.93356"
       height="486.93353"
       x="-55.700062"
       y="-541.03668" /><g
       id="g5"
       inkscape:export-filename="icon.png"
       inkscape:export-xdpi="96"
       inkscape:export-ydpi="96"><path
         style="fill:#ffffff;fill-opacity:1;stroke:#000000;stroke-width:26.7;stroke-linecap:round;stroke-dasharray:none;stroke-dashoffset:0;stroke-opacity:1;paint-order:markers stroke fill"
         d="m 60.452708,-126.54965 42.340412,-53.42713"
         id="path1"
         sodipodi:nodetypes="cc" /><circle
         style="fill:#ba00ff;fill-opacity:1;stroke:#000000;stroke-width:8.7;stroke-linecap:square;stroke-dasharray:none;stroke-dashoffset:0;stroke-opacity:1;paint-order:markers stroke fill"
         id="path5"
         cx="185.40269"
         cy="-280.36542"
         r="127.81955" /><path
         style="fill:#000000"
         d="m 58.146097,-114.27289 c -4.18829,-1.09727 -7.31736,-3.67151 -9.23675,-7.59895 -0.99129,-2.02836 -1.00307,-2.08978 -1.00307,-5.22748 0,-3.02062 0.041,-3.26157 0.84346,-4.95553 1.09729,-2.31635 2.0338,-3.678 4.96251,-7.2153 2.70219,-3.26371 6.7805,-8.38332 8.74689,-10.98021 0.71624,-0.94588 1.8425,-2.39452 2.50282,-3.2192 1.71272,-2.13903 3.9963,-5.04395 5.89303,-7.49642 0.90036,-1.16417 3.19637,-4.0812 5.10226,-6.4823 13.0464,-16.43626 14.86968,-18.77377 15.46878,-19.8315 0.17358,-0.30646 0.5053,-0.13934 1.63238,0.82244 4.16971,3.55814 9.705373,7.6842 15.173693,11.30987 2.4734,1.63994 4.53128,3.07417 4.57308,3.18717 0.12622,0.34128 -1.59186,2.12451 -1.87706,1.94825 -0.14922,-0.0922 -0.18307,-0.0311 -0.0775,0.13974 0.16791,0.27168 -2.48214,4.09564 -4.06356,5.86362 -0.32541,0.3638 -1.62188,2.02973 -2.88103,3.70207 -1.25916,1.67234 -2.48761,3.27969 -2.72989,3.57188 -1.317983,1.58951 -2.751683,3.39561 -4.097203,5.16146 -2.68856,3.52845 -11.63755,14.78057 -12.20479,15.34584 -0.35413,0.35291 -0.38035,0.34558 -0.2367,-0.0661 0.0888,-0.25466 0.0661,-0.46302 -0.0506,-0.46302 -0.41473,0 -0.55616,0.35326 -0.27638,0.69037 0.21412,0.258 -0.12448,0.8824 -1.37622,2.53788 -0.91311,1.20764 -1.73284,2.25524 -1.82162,2.328 -0.0888,0.0728 -0.51078,0.60854 -0.93777,1.19062 -1.68819,2.3014 -9.25206,11.70837 -10.27743,12.78175 -1.47318,1.54216 -3.47014,2.63996 -5.63772,3.09925 -2.36926,0.50202 -3.77354,0.46891 -6.11362,-0.14415 z m 1.79872,-0.094 c 0,-0.0549 -0.20836,-0.2633 -0.46302,-0.46302 -0.41965,-0.32911 -0.42901,-0.31975 -0.0999,0.0999 0.34565,0.44073 0.56292,0.58089 0.56292,0.36313 z m 0.79375,0 c 0,-0.0549 -0.20836,-0.2633 -0.46302,-0.46302 -0.41965,-0.32911 -0.42901,-0.31975 -0.0999,0.0999 0.34565,0.44073 0.56292,0.58089 0.56292,0.36313 z m 24.34166,-22.77095 c 0,-0.0642 -0.11906,-0.19026 -0.26458,-0.2802 -0.14552,-0.0899 -0.26458,-0.0374 -0.26458,0.11668 0,0.15411 0.11906,0.2802 0.26458,0.2802 0.14552,0 0.26458,-0.0525 0.26458,-0.11668 z m 214.154883,-33.76862 c -6.25091,-0.33961 -10.04846,-0.85956 -19.95072,-2.73159 -6.38857,-1.20777 -9.68325,-1.94716 -15.47813,-3.4736 -2.61937,-0.68998 -5.31642,-1.34881 -5.99344,-1.46406 -1.21912,-0.20755 -17.38092,-5.54519 -23.24301,-7.6763 -5.54082,-2.01431 -22.71878,-9.01446 -28.04583,-11.42888 -0.80037,-0.36276 -2.70537,-1.20149 -4.23334,-1.86385 -3.50646,-1.52003 -22.35662,-10.78062 -25.53229,-12.54335 -1.30968,-0.72697 -4.29499,-2.33771 -6.63401,-3.57942 -5.0308,-2.67069 -12.99838,-7.16761 -17.44307,-9.84491 -1.74625,-1.05186 -4.24656,-2.54507 -5.55625,-3.31822 -10.42367,-6.15348 -30.39547,-19.31234 -38.03945,-25.06313 -0.76091,-0.57245 -3.86663,-2.87693 -6.90162,-5.12108 -7.870523,-5.81966 -19.072313,-14.70633 -23.982883,-19.02623 -1.09141,-0.96013 -3.05594,-2.68199 -4.36563,-3.82635 -2.85387,-2.49362 -3.80668,-3.36638 -9.11367,-8.34794 -5.43576,-5.10244 -12.17968,-11.9161 -13.87892,-14.02245 -0.41088,-0.50932 -1.85177,-2.11667 -3.20198,-3.57188 -3.84057,-4.13925 -6.49247,-7.37613 -6.35169,-7.7528 0.0708,-0.18946 0.0238,-0.2796 -0.10452,-0.20031 -0.23,0.14215 -2.04446,-1.985 -4.20871,-4.93403 -1.17059,-1.59504 -1.39576,-2.09966 -0.66883,-1.4989 0.40133,0.33169 0.40785,0.3125 0.0752,-0.22163 -0.20027,-0.32162 -0.43645,-0.46776 -0.52483,-0.32475 -0.16442,0.26603 -1.86308,-2.00113 -4.67101,-6.23424 -2.72149,-4.10282 -3.81282,-6.09677 -3.63498,-6.6414 0.12278,-0.376 0.0988,-0.41094 -0.0952,-0.13892 -0.33861,0.47473 -1.18738,-0.96391 -3.2207,-5.459 -3.71916,-8.22197 -5.50635,-14.6651 -5.7421,-20.70131 -0.13606,-3.48376 -0.0876,-4.10987 0.52733,-6.81055 1.28054,-5.62407 3.22797,-9.36057 6.89774,-13.23456 2.24642,-2.37144 4.37626,-3.79983 8.49391,-5.6965 3.32395,-1.53109 4.32747,-1.84326 9.525,-2.96303 6.44211,-1.3879 14.48184,-1.83308 21.43125,-1.18671 4.82732,0.449 14.30965,1.81731 18.38854,2.65349 4.95676,1.01615 17.681273,4.33206 18.053933,4.70472 0.31804,0.31803 -0.14068,0.7843 -2.178933,2.21477 -1.34051,0.94079 -7.92317,6.41086 -9.87804,8.20847 l -1.27908,1.17619 -1.39268,-0.45945 c -2.10318,-0.69384 -11.31649,-2.51258 -16.68319,-3.29331 -12.83298,-1.86691 -23.86052,-0.80531 -31.2243,3.00589 -1.01865,0.52721 -1.99625,0.94425 -2.17244,0.92674 -0.17619,-0.0175 -0.30136,0.0435 -0.27815,0.13549 0.0232,0.092 -0.40487,0.64356 -0.95129,1.22565 -0.54642,0.58208 -1.36384,1.8096 -1.81649,2.72782 -0.72038,1.46133 -0.83836,2.0149 -0.9462,4.43964 -0.1564,3.51647 0.25054,6.03917 1.59666,9.89816 1.96433,5.63124 4.21782,9.9197 9.03711,17.19792 1.30082,1.96453 2.3653,3.71546 2.3655,3.89096 2e-4,0.1755 0.0996,0.25777 0.22085,0.18282 0.20104,-0.12425 0.32972,0.26148 0.25182,0.75486 -0.0172,0.10914 0.1175,0.16867 0.2994,0.13229 0.1819,-0.0364 0.31497,0.13755 0.29571,0.3865 -0.0193,0.24896 0.0998,0.42755 0.26458,0.39688 0.16478,-0.0307 0.28328,0.15131 0.26333,0.4044 -0.0199,0.2531 0.0558,0.40325 0.16841,0.33367 0.11258,-0.0696 1.07408,1.03304 2.13668,2.45025 1.97959,2.64021 4.63081,5.8533 5.63436,6.82844 0.30992,0.30115 1.27786,1.36812 2.15099,2.37105 8.22401,9.44665 16.41492,17.44852 28.97187,28.30319 6.39066,5.52431 7.82213,6.71187 10.95995,9.0925 2.27889,1.72898 5.263553,4.06956 5.444223,4.26939 0.0728,0.0805 1.36969,1.09536 2.88207,2.25529 1.51238,1.15993 3.73121,2.88287 4.93074,3.82875 2.75907,2.17566 8.46106,6.36313 11.89865,8.73821 1.4552,1.00542 2.82442,1.95359 3.0427,2.10704 0.21828,0.15345 1.17078,0.79037 2.11667,1.41538 2.67267,1.766 3.81337,2.53099 4.10175,2.75075 0.45259,0.3449 5.47851,3.64461 6.99623,4.5933 0.79238,0.49529 2.71738,1.73397 4.27778,2.75261 2.85068,1.86095 6.02896,3.81636 8.60098,5.29167 0.76109,0.43656 2.55354,1.51931 3.98322,2.40611 4.34039,2.69224 12.84795,7.58993 17.41608,10.0262 1.30969,0.69848 3.4538,1.89462 4.7647,2.65808 4.23947,2.46905 24.8731,12.78954 30.42488,15.21786 0.29104,0.1273 2.19604,0.99349 4.23333,1.92487 2.0373,0.93138 3.99012,1.783 4.33962,1.89249 0.34949,0.10949 1.65918,0.67238 2.91041,1.25087 10.15165,4.69351 34.5635,13.47344 45.0733,16.211 1.34498,0.35034 3.57651,0.95364 4.95896,1.34068 7.59652,2.12677 19.91554,4.47647 26.85521,5.12229 4.1434,0.38559 13.22059,0.33222 16.80104,-0.0988 7.72135,-0.92948 13.25014,-3.05855 15.67755,-6.03722 2.38977,-2.93249 3.20362,-5.42367 3.21653,-9.8457 0.007,-2.43532 -0.1295,-3.72977 -0.58638,-5.55625 -0.97873,-3.91267 -2.63684,-8.713 -4.04919,-11.72262 l -1.32781,-2.82946 -0.71066,0.81453 c -0.39087,0.44799 -2.12712,2.73994 -3.85833,5.09322 -1.73122,2.35329 -3.22392,4.2787 -3.31713,4.2787 -0.0932,0 -0.18917,-0.26789 -0.21325,-0.59531 -0.0241,-0.32742 -0.34766,-2.73844 -0.71907,-5.35781 -2.27675,-16.05686 -3.01259,-21.62559 -4.20411,-31.81615 -0.40943,-3.50166 -0.51983,-3.40421 2.51925,-2.22363 1.06602,0.41412 3.12885,1.20864 4.58405,1.76562 1.45521,0.55698 4.84849,1.89992 7.54063,2.98432 2.69213,1.08439 7.81182,3.14178 11.37708,4.57197 9.40603,3.77319 10.81019,4.35132 10.97938,4.52051 0.19296,0.19297 -0.69129,0.60788 -8.0485,3.77653 -2.53536,1.09195 -4.70286,2.13601 -4.81665,2.32013 -0.12308,0.19915 -0.0483,0.42353 0.18468,0.5539 0.56951,0.31871 3.78758,6.8722 5.54262,11.28734 2.57371,6.47469 3.83287,12.24572 3.98553,18.26675 0.14246,5.61847 -0.9536,10.06454 -3.5417,14.36658 -1.85796,3.08837 -2.07951,3.3798 -4.22823,5.56189 -3.92338,3.98432 -11.01269,7.39497 -19.06272,9.17103 -5.35202,1.18081 -13.98915,1.70988 -21.36868,1.30895 z m 23.97011,-3.05238 c 0,-0.0572 -0.1786,-0.10399 -0.39688,-0.10399 -0.21828,0 -0.39687,0.11533 -0.39687,0.25628 0,0.14095 0.17859,0.18775 0.39687,0.10398 0.21828,-0.0838 0.39688,-0.19908 0.39688,-0.25627 z M 32.957317,-368.41492 c 0,-0.22687 -0.11906,-0.33891 -0.26458,-0.24897 -0.14553,0.0899 -0.26459,0.27556 -0.26459,0.41249 0,0.13693 0.11906,0.24897 0.26459,0.24897 0.14552,0 0.26458,-0.18562 0.26458,-0.41249 z m 237.321053,-6.37058 c -3.36046,-3.04168 -9.17523,-7.67656 -13.21898,-10.53666 -1.81901,-1.28657 -3.57626,-2.54761 -3.905,-2.80232 l -0.59772,-0.46309 3.60811,-4.72254 c 1.98446,-2.59739 3.95406,-5.11817 4.3769,-5.60173 0.42283,-0.48357 1.06671,-1.35116 1.43085,-1.92799 0.36414,-0.57683 0.77981,-0.97601 0.92373,-0.88707 0.14391,0.0889 0.23044,0.0636 0.19229,-0.0564 -0.15768,-0.4958 11.54715,-15.34937 11.99882,-15.22666 0.14718,0.04 0.19429,-0.0459 0.10469,-0.19089 -0.0896,-0.14497 0.7589,-1.42785 1.88556,-2.85082 1.12665,-1.42298 3.17941,-4.01599 4.56169,-5.76224 1.38227,-1.74625 3.60003,-4.54422 4.92835,-6.21771 2.56836,-3.23576 8.10226,-10.48872 8.43321,-11.0529 0.10882,-0.18551 0.0997,-0.32024 -0.0202,-0.2994 -0.11996,0.0208 -0.3967,0.022 -0.61498,0.002 -0.35278,-0.0315 -0.35278,-0.0671 0,-0.32087 0.33499,-0.24098 0.32468,-0.26227 -0.0662,-0.13655 -0.60921,0.19598 -1.29983,-0.0799 -1.08208,-0.43221 0.0944,-0.15276 0.0489,-0.2019 -0.10106,-0.10919 -0.32529,0.20104 -2.55324,-0.54589 -7.74654,-2.59705 -2.11006,-0.8334 -5.32474,-2.02357 -7.14375,-2.64483 -4.41248,-1.50703 -5.58095,-1.99923 -5.4085,-2.27826 0.0794,-0.12843 -0.0265,-0.16796 -0.23529,-0.0878 -0.20879,0.0801 -1.07817,-0.14447 -1.93197,-0.49909 -0.8538,-0.35462 -3.42129,-1.32933 -5.70552,-2.16601 -3.19694,-1.17099 -4.08024,-1.5929 -3.83646,-1.83245 0.31276,-0.30735 8.77152,-4.31502 12.61982,-5.97914 1.09141,-0.47196 3.11547,-1.39188 4.49792,-2.04426 5.50512,-2.59791 7.19711,-3.38691 11.77395,-5.49036 2.61938,-1.20383 7.08422,-3.28758 9.92188,-4.63056 2.83765,-1.34298 7.18343,-3.36589 9.65729,-4.49536 4.24912,-1.93999 10.40124,-4.76527 17.85937,-8.20167 1.81901,-0.83812 5.50995,-2.53486 8.20208,-3.77053 2.69214,-1.23567 6.14495,-2.84336 7.67292,-3.57264 6.1879,-2.95343 12.10699,-5.51127 12.3021,-5.31616 0.0629,0.0629 -0.52657,3.91865 -1.30985,8.56842 -5.49539,32.62195 -6.79282,40.25419 -6.90712,40.63157 -0.0712,0.2351 -0.65478,3.56884 -1.29683,7.40833 -0.64206,3.83949 -1.65891,9.77886 -2.25967,13.1986 -0.60077,3.41974 -1.54802,9.01567 -2.105,12.43541 -1.8733,11.50157 -2.96663,17.59431 -3.17087,17.67017 -0.11161,0.0415 -0.15139,0.39865 -0.0884,0.79375 0.0897,0.56275 0.0536,0.6324 -0.1667,0.3215 -0.20674,-0.29174 -0.28232,-0.30512 -0.28529,-0.0505 -0.002,0.19049 -0.12175,0.2736 -0.26561,0.18469 -0.14759,-0.0912 -0.19569,0.01 -0.11039,0.23227 0.0831,0.21665 0.31989,0.32916 0.52613,0.25001 0.41688,-0.15997 0.48202,0.12807 0.14805,0.65461 -0.1569,0.24737 -0.62851,-0.16446 -1.66644,-1.45521 -5.00373,-6.22255 -12.98783,-17.22445 -12.76338,-17.58762 0.11009,-0.17812 0.0694,-0.22931 -0.0994,-0.12502 -0.16765,0.10362 -1.57906,-1.59287 -3.41432,-4.10394 -3.91447,-5.35594 -4.34674,-5.85925 -4.84875,-5.64565 -0.21804,0.0928 -1.09325,1.11189 -1.94492,2.26471 -0.85167,1.15282 -1.63549,2.04227 -1.74184,1.97654 -0.10634,-0.0657 -0.19335,0.0281 -0.19335,0.2086 0,0.4988 -2.50975,3.6237 -2.77747,3.45824 -0.12884,-0.0796 -0.2172,-0.0466 -0.19637,0.0733 0.10101,0.58146 -0.0534,0.89434 -0.3555,0.72047 -0.1819,-0.10468 -0.24562,-0.096 -0.1416,0.0192 0.27966,0.30978 -0.29912,1.24327 -0.64016,1.0325 -0.17837,-0.11024 -0.21716,-0.0592 -0.0996,0.13108 0.24641,0.3987 -1.91197,3.00783 -2.29326,2.77218 -0.16306,-0.10078 -0.20302,-0.0479 -0.0954,0.12627 0.10567,0.17097 -0.98476,1.7939 -2.5388,3.77859 -1.49822,1.91339 -4.09325,5.23202 -5.76674,7.37473 -3.98248,5.09911 -9.57258,12.19582 -14.31299,18.17056 -2.09604,2.6418 -4.91791,6.23006 -6.27083,7.97392 -1.35293,1.74385 -2.6672,3.35828 -2.92061,3.58761 -0.42697,0.3864 -0.64423,0.25088 -2.96409,-1.84892 z m 4.457,-41.24581 c -0.0815,-0.0815 -0.2294,0.0654 -0.32876,0.32632 -0.14359,0.37709 -0.1132,0.40748 0.14811,0.14812 0.18082,-0.17948 0.26212,-0.39297 0.18065,-0.47444 z m 79.57235,-82.3881 c -0.0823,-0.13309 2e-5,-0.29539 0.18283,-0.36065 0.1828,-0.0653 0.2366,-0.22082 0.11955,-0.34567 -0.24349,-0.2597 -0.74604,0.41657 -0.54785,0.73723 0.0718,0.11609 0.18998,0.21107 0.26274,0.21107 0.0728,0 0.065,-0.10889 -0.0173,-0.24198 z"
         id="path4"
         mask="url(#mask-powermask-path-effect2)"
         inkscape:path-effect="#path-effect2"
         inkscape:original-d="m 58.146097,-114.27289 c -4.18829,-1.09727 -7.31736,-3.67151 -9.23675,-7.59895 -0.99129,-2.02836 -1.00307,-2.08978 -1.00307,-5.22748 0,-3.02062 0.041,-3.26157 0.84346,-4.95553 1.09729,-2.31635 2.0338,-3.678 4.96251,-7.2153 2.70219,-3.26371 6.7805,-8.38332 8.74689,-10.98021 0.71624,-0.94588 1.8425,-2.39452 2.50282,-3.2192 1.71272,-2.13903 3.9963,-5.04395 5.89303,-7.49642 0.90036,-1.16417 3.19637,-4.0812 5.10226,-6.4823 13.0464,-16.43626 14.86968,-18.77377 15.46878,-19.8315 0.17358,-0.30646 0.5053,-0.13934 1.63238,0.82244 4.16971,3.55814 9.705373,7.6842 15.173693,11.30987 2.4734,1.63994 4.53128,3.07417 4.57308,3.18717 0.12622,0.34128 -1.59186,2.12451 -1.87706,1.94825 -0.14922,-0.0922 -0.18307,-0.0311 -0.0775,0.13974 0.16791,0.27168 -2.48214,4.09564 -4.06356,5.86362 -0.32541,0.3638 -1.62188,2.02973 -2.88103,3.70207 -1.25916,1.67234 -2.48761,3.27969 -2.72989,3.57188 -1.317983,1.58951 -2.751683,3.39561 -4.097203,5.16146 -2.68856,3.52845 -11.63755,14.78057 -12.20479,15.34584 -0.35413,0.35291 -0.38035,0.34558 -0.2367,-0.0661 0.0888,-0.25466 0.0661,-0.46302 -0.0506,-0.46302 -0.41473,0 -0.55616,0.35326 -0.27638,0.69037 0.21412,0.258 -0.12448,0.8824 -1.37622,2.53788 -0.91311,1.20764 -1.73284,2.25524 -1.82162,2.328 -0.0888,0.0728 -0.51078,0.60854 -0.93777,1.19062 -1.68819,2.3014 -9.25206,11.70837 -10.27743,12.78175 -1.47318,1.54216 -3.47014,2.63996 -5.63772,3.09925 -2.36926,0.50202 -3.77354,0.46891 -6.11362,-0.14415 z m 1.79872,-0.094 c 0,-0.0549 -0.20836,-0.2633 -0.46302,-0.46302 -0.41965,-0.32911 -0.42901,-0.31975 -0.0999,0.0999 0.34565,0.44073 0.56292,0.58089 0.56292,0.36313 z m 0.79375,0 c 0,-0.0549 -0.20836,-0.2633 -0.46302,-0.46302 -0.41965,-0.32911 -0.42901,-0.31975 -0.0999,0.0999 0.34565,0.44073 0.56292,0.58089 0.56292,0.36313 z m 24.34166,-22.77095 c 0,-0.0642 -0.11906,-0.19026 -0.26458,-0.2802 -0.14552,-0.0899 -0.26458,-0.0374 -0.26458,0.11668 0,0.15411 0.11906,0.2802 0.26458,0.2802 0.14552,0 0.26458,-0.0525 0.26458,-0.11668 z m 214.154883,-33.76862 c -6.25091,-0.33961 -10.04846,-0.85956 -19.95072,-2.73159 -6.38857,-1.20777 -9.68325,-1.94716 -15.47813,-3.4736 -2.61937,-0.68998 -5.31642,-1.34881 -5.99344,-1.46406 -1.21912,-0.20755 -17.38092,-5.54519 -23.24301,-7.6763 -5.54082,-2.01431 -22.71878,-9.01446 -28.04583,-11.42888 -0.80037,-0.36276 -2.70537,-1.20149 -4.23334,-1.86385 -3.50646,-1.52003 -22.35662,-10.78062 -25.53229,-12.54335 -1.30968,-0.72697 -4.29499,-2.33771 -6.63401,-3.57942 -5.0308,-2.67069 -12.99838,-7.16761 -17.44307,-9.84491 -1.74625,-1.05186 -4.24656,-2.54507 -5.55625,-3.31822 -10.42367,-6.15348 -30.39547,-19.31234 -38.03945,-25.06313 -0.76091,-0.57245 -3.86663,-2.87693 -6.90162,-5.12108 -7.870523,-5.81966 -19.072313,-14.70633 -23.982883,-19.02623 -1.09141,-0.96013 -3.05594,-2.68199 -4.36563,-3.82635 -2.85387,-2.49362 -3.80668,-3.36638 -9.11367,-8.34794 -5.43576,-5.10244 -12.17968,-11.9161 -13.87892,-14.02245 -0.41088,-0.50932 -1.85177,-2.11667 -3.20198,-3.57188 -3.84057,-4.13925 -6.49247,-7.37613 -6.35169,-7.7528 0.0708,-0.18946 0.0238,-0.2796 -0.10452,-0.20031 -0.23,0.14215 -2.04446,-1.985 -4.20871,-4.93403 -1.17059,-1.59504 -1.39576,-2.09966 -0.66883,-1.4989 0.40133,0.33169 0.40785,0.3125 0.0752,-0.22163 -0.20027,-0.32162 -0.43645,-0.46776 -0.52483,-0.32475 -0.16442,0.26603 -1.86308,-2.00113 -4.67101,-6.23424 -2.72149,-4.10282 -3.81282,-6.09677 -3.63498,-6.6414 0.12278,-0.376 0.0988,-0.41094 -0.0952,-0.13892 -0.33861,0.47473 -1.18738,-0.96391 -3.2207,-5.459 -3.71916,-8.22197 -5.50635,-14.6651 -5.7421,-20.70131 -0.13606,-3.48376 -0.0876,-4.10987 0.52733,-6.81055 1.28054,-5.62407 3.22797,-9.36057 6.89774,-13.23456 2.24642,-2.37144 4.37626,-3.79983 8.49391,-5.6965 3.32395,-1.53109 4.32747,-1.84326 9.525,-2.96303 6.44211,-1.3879 14.48184,-1.83308 21.43125,-1.18671 4.82732,0.449 14.30965,1.81731 18.38854,2.65349 4.95676,1.01615 17.681273,4.33206 18.053933,4.70472 0.31804,0.31803 -0.14068,0.7843 -2.178933,2.21477 -1.34051,0.94079 -7.92317,6.41086 -9.87804,8.20847 l -1.27908,1.17619 -1.39268,-0.45945 c -2.10318,-0.69384 -11.31649,-2.51258 -16.68319,-3.29331 -12.83298,-1.86691 -23.86052,-0.80531 -31.2243,3.00589 -1.01865,0.52721 -1.99625,0.94425 -2.17244,0.92674 -0.17619,-0.0175 -0.30136,0.0435 -0.27815,0.13549 0.0232,0.092 -0.40487,0.64356 -0.95129,1.22565 -0.54642,0.58208 -1.36384,1.8096 -1.81649,2.72782 -0.72038,1.46133 -0.83836,2.0149 -0.9462,4.43964 -0.1564,3.51647 0.25054,6.03917 1.59666,9.89816 1.96433,5.63124 4.21782,9.9197 9.03711,17.19792 1.30082,1.96453 2.3653,3.71546 2.3655,3.89096 2e-4,0.1755 0.0996,0.25777 0.22085,0.18282 0.20104,-0.12425 0.32972,0.26148 0.25182,0.75486 -0.0172,0.10914 0.1175,0.16867 0.2994,0.13229 0.1819,-0.0364 0.31497,0.13755 0.29571,0.3865 -0.0193,0.24896 0.0998,0.42755 0.26458,0.39688 0.16478,-0.0307 0.28328,0.15131 0.26333,0.4044 -0.0199,0.2531 0.0558,0.40325 0.16841,0.33367 0.11258,-0.0696 1.07408,1.03304 2.13668,2.45025 1.97959,2.64021 4.63081,5.8533 5.63436,6.82844 0.30992,0.30115 1.27786,1.36812 2.15099,2.37105 8.22401,9.44665 16.41492,17.44852 28.97187,28.30319 6.39066,5.52431 7.82213,6.71187 10.95995,9.0925 2.27889,1.72898 5.263553,4.06956 5.444223,4.26939 0.0728,0.0805 1.36969,1.09536 2.88207,2.25529 1.51238,1.15993 3.73121,2.88287 4.93074,3.82875 2.75907,2.17566 8.46106,6.36313 11.89865,8.73821 1.4552,1.00542 2.82442,1.95359 3.0427,2.10704 0.21828,0.15345 1.17078,0.79037 2.11667,1.41538 2.67267,1.766 3.81337,2.53099 4.10175,2.75075 0.45259,0.3449 5.47851,3.64461 6.99623,4.5933 0.79238,0.49529 2.71738,1.73397 4.27778,2.75261 2.85068,1.86095 6.02896,3.81636 8.60098,5.29167 0.76109,0.43656 2.55354,1.51931 3.98322,2.40611 4.34039,2.69224 12.84795,7.58993 17.41608,10.0262 1.30969,0.69848 3.4538,1.89462 4.7647,2.65808 4.23947,2.46905 24.8731,12.78954 30.42488,15.21786 0.29104,0.1273 2.19604,0.99349 4.23333,1.92487 2.0373,0.93138 3.99012,1.783 4.33962,1.89249 0.34949,0.10949 1.65918,0.67238 2.91041,1.25087 10.15165,4.69351 34.5635,13.47344 45.0733,16.211 1.34498,0.35034 3.57651,0.95364 4.95896,1.34068 7.59652,2.12677 19.91554,4.47647 26.85521,5.12229 4.1434,0.38559 13.22059,0.33222 16.80104,-0.0988 7.72135,-0.92948 13.25014,-3.05855 15.67755,-6.03722 2.38977,-2.93249 3.20362,-5.42367 3.21653,-9.8457 0.007,-2.43532 -0.1295,-3.72977 -0.58638,-5.55625 -0.97873,-3.91267 -2.63684,-8.713 -4.04919,-11.72262 l -1.32781,-2.82946 -0.71066,0.81453 c -0.39087,0.44799 -2.12712,2.73994 -3.85833,5.09322 -1.73122,2.35329 -3.22392,4.2787 -3.31713,4.2787 -0.0932,0 -0.18917,-0.26789 -0.21325,-0.59531 -0.0241,-0.32742 -0.34766,-2.73844 -0.71907,-5.35781 -2.27675,-16.05686 -3.01259,-21.62559 -4.20411,-31.81615 -0.40943,-3.50166 -0.51983,-3.40421 2.51925,-2.22363 1.06602,0.41412 3.12885,1.20864 4.58405,1.76562 1.45521,0.55698 4.84849,1.89992 7.54063,2.98432 2.69213,1.08439 7.81182,3.14178 11.37708,4.57197 9.40603,3.77319 10.81019,4.35132 10.97938,4.52051 0.19296,0.19297 -0.69129,0.60788 -8.0485,3.77653 -2.53536,1.09195 -4.70286,2.13601 -4.81665,2.32013 -0.12308,0.19915 -0.0483,0.42353 0.18468,0.5539 0.56951,0.31871 3.78758,6.8722 5.54262,11.28734 2.57371,6.47469 3.83287,12.24572 3.98553,18.26675 0.14246,5.61847 -0.9536,10.06454 -3.5417,14.36658 -1.85796,3.08837 -2.07951,3.3798 -4.22823,5.56189 -3.92338,3.98432 -11.01269,7.39497 -19.06272,9.17103 -5.35202,1.18081 -13.98915,1.70988 -21.36868,1.30895 z m 23.97011,-3.05238 c 0,-0.0572 -0.1786,-0.10399 -0.39688,-0.10399 -0.21828,0 -0.39687,0.11533 -0.39687,0.25628 0,0.14095 0.17859,0.18775 0.39687,0.10398 0.21828,-0.0838 0.39688,-0.19908 0.39688,-0.25627 z M 32.957317,-368.41492 c 0,-0.22687 -0.11906,-0.33891 -0.26458,-0.24897 -0.14553,0.0899 -0.26459,0.27556 -0.26459,0.41249 0,0.13693 0.11906,0.24897 0.26459,0.24897 0.14552,0 0.26458,-0.18562 0.26458,-0.41249 z m 237.321053,-6.37058 c -3.36046,-3.04168 -9.17523,-7.67656 -13.21898,-10.53666 -1.81901,-1.28657 -3.57626,-2.54761 -3.905,-2.80232 l -0.59772,-0.46309 3.60811,-4.72254 c 1.98446,-2.59739 3.95406,-5.11817 4.3769,-5.60173 0.42283,-0.48357 1.06671,-1.35116 1.43085,-1.92799 0.36414,-0.57683 0.77981,-0.97601 0.92373,-0.88707 0.14391,0.0889 0.23044,0.0636 0.19229,-0.0564 -0.15768,-0.4958 11.54715,-15.34937 11.99882,-15.22666 0.14718,0.04 0.19429,-0.0459 0.10469,-0.19089 -0.0896,-0.14497 0.7589,-1.42785 1.88556,-2.85082 1.12665,-1.42298 3.17941,-4.01599 4.56169,-5.76224 1.38227,-1.74625 3.60003,-4.54422 4.92835,-6.21771 2.56836,-3.23576 8.10226,-10.48872 8.43321,-11.0529 0.10882,-0.18551 0.0997,-0.32024 -0.0202,-0.2994 -0.11996,0.0208 -0.3967,0.022 -0.61498,0.002 -0.35278,-0.0315 -0.35278,-0.0671 0,-0.32087 0.33499,-0.24098 0.32468,-0.26227 -0.0662,-0.13655 -0.60921,0.19598 -1.29983,-0.0799 -1.08208,-0.43221 0.0944,-0.15276 0.0489,-0.2019 -0.10106,-0.10919 -0.32529,0.20104 -2.55324,-0.54589 -7.74654,-2.59705 -2.11006,-0.8334 -5.32474,-2.02357 -7.14375,-2.64483 -4.41248,-1.50703 -5.58095,-1.99923 -5.4085,-2.27826 0.0794,-0.12843 -0.0265,-0.16796 -0.23529,-0.0878 -0.20879,0.0801 -1.07817,-0.14447 -1.93197,-0.49909 -0.8538,-0.35462 -3.42129,-1.32933 -5.70552,-2.16601 -3.19694,-1.17099 -4.08024,-1.5929 -3.83646,-1.83245 0.31276,-0.30735 8.77152,-4.31502 12.61982,-5.97914 1.09141,-0.47196 3.11547,-1.39188 4.49792,-2.04426 5.50512,-2.59791 7.19711,-3.38691 11.77395,-5.49036 2.61938,-1.20383 7.08422,-3.28758 9.92188,-4.63056 2.83765,-1.34298 7.18343,-3.36589 9.65729,-4.49536 4.24912,-1.93999 10.40124,-4.76527 17.85937,-8.20167 1.81901,-0.83812 5.50995,-2.53486 8.20208,-3.77053 2.69214,-1.23567 6.14495,-2.84336 7.67292,-3.57264 6.1879,-2.95343 12.10699,-5.51127 12.3021,-5.31616 0.0629,0.0629 -0.52657,3.91865 -1.30985,8.56842 -5.49539,32.62195 -6.79282,40.25419 -6.90712,40.63157 -0.0712,0.2351 -0.65478,3.56884 -1.29683,7.40833 -0.64206,3.83949 -1.65891,9.77886 -2.25967,13.1986 -0.60077,3.41974 -1.54802,9.01567 -2.105,12.43541 -1.8733,11.50157 -2.96663,17.59431 -3.17087,17.67017 -0.11161,0.0415 -0.15139,0.39865 -0.0884,0.79375 0.0897,0.56275 0.0536,0.6324 -0.1667,0.3215 -0.20674,-0.29174 -0.28232,-0.30512 -0.28529,-0.0505 -0.002,0.19049 -0.12175,0.2736 -0.26561,0.18469 -0.14759,-0.0912 -0.19569,0.01 -0.11039,0.23227 0.0831,0.21665 0.31989,0.32916 0.52613,0.25001 0.41688,-0.15997 0.48202,0.12807 0.14805,0.65461 -0.1569,0.24737 -0.62851,-0.16446 -1.66644,-1.45521 -5.00373,-6.22255 -12.98783,-17.22445 -12.76338,-17.58762 0.11009,-0.17812 0.0694,-0.22931 -0.0994,-0.12502 -0.16765,0.10362 -1.57906,-1.59287 -3.41432,-4.10394 -3.91447,-5.35594 -4.34674,-5.85925 -4.84875,-5.64565 -0.21804,0.0928 -1.09325,1.11189 -1.94492,2.26471 -0.85167,1.15282 -1.63549,2.04227 -1.74184,1.97654 -0.10634,-0.0657 -0.19335,0.0281 -0.19335,0.2086 0,0.4988 -2.50975,3.6237 -2.77747,3.45824 -0.12884,-0.0796 -0.2172,-0.0466 -0.19637,0.0733 0.10101,0.58146 -0.0534,0.89434 -0.3555,0.72047 -0.1819,-0.10468 -0.24562,-0.096 -0.1416,0.0192 0.27966,0.30978 -0.29912,1.24327 -0.64016,1.0325 -0.17837,-0.11024 -0.21716,-0.0592 -0.0996,0.13108 0.24641,0.3987 -1.91197,3.00783 -2.29326,2.77218 -0.16306,-0.10078 -0.20302,-0.0479 -0.0954,0.12627 0.10567,0.17097 -0.98476,1.7939 -2.5388,3.77859 -1.49822,1.91339 -4.09325,5.23202 -5.76674,7.37473 -3.98248,5.09911 -9.57258,12.19582 -14.31299,18.17056 -2.09604,2.6418 -4.91791,6.23006 -6.27083,7.97392 -1.35293,1.74385 -2.6672,3.35828 -2.92061,3.58761 -0.42697,0.3864 -0.64423,0.25088 -2.96409,-1.84892 z m 4.457,-41.24581 c -0.0815,-0.0815 -0.2294,0.0654 -0.32876,0.32632 -0.14359,0.37709 -0.1132,0.40748 0.14811,0.14812 0.18082,-0.17948 0.26212,-0.39297 0.18065,-0.47444 z m 79.57235,-82.3881 c -0.0823,-0.13309 2e-5,-0.29539 0.18283,-0.36065 0.1828,-0.0653 0.2366,-0.22082 0.11955,-0.34567 -0.24349,-0.2597 -0.74604,0.41657 -0.54785,0.73723 0.0718,0.11609 0.18998,0.21107 0.26274,0.21107 0.0728,0 0.065,-0.10889 -0.0173,-0.24198 z" /><path
         style="fill:#000000;fill-opacity:1;stroke:#000000;stroke-width:26.7;stroke-linecap:square;stroke-dasharray:none;stroke-dashoffset:0;stroke-opacity:1;marker-end:url(#ConcaveTriangle);paint-order:markers stroke fill"
         d="m 252.07353,-374.22065 51.70411,-68.66737"
         id="path3"
         sodipodi:nodetypes="cc" /><ellipse
         style="fill:#ba00ff;fill-opacity:1;stroke:none;stroke-width:25.9;stroke-linecap:square;stroke-dasharray:none;stroke-dashoffset:0;stroke-opacity:1;paint-order:markers stroke fill"
         id="path6"
         cx="-21.683517"
         cy="-437.9964"
         rx="41.241356"
         ry="14.146841"
         transform="rotate(37.192782)"
         inkscape:export-filename="icon.png"
         inkscape:export-xdpi="96"
         inkscape:export-ydpi="96" /></g></g></svg>
